<svg width="23" height="23" viewBox="0 0 23 23" fill="none" xmlns="http://www.w3.org/2000/svg">
<path d="M18.2917 10.0625V6.70833C18.2917 6.45417 18.1907 6.21041 18.011 6.03069C17.8313 5.85097 17.5875 5.75 17.3333 5.75H5.83333C5.57917 5.75 5.33541 5.85097 5.15569 6.03069C4.97597 6.21041 4.875 6.45417 4.875 6.70833V16.2917C4.875 16.5458 4.97597 16.7896 5.15569 16.9693C5.33541 17.149 5.57917 17.25 5.83333 17.25H17.3333C17.5875 17.25 17.8313 17.149 18.011 16.9693C18.1907 16.7896 18.2917 16.5458 18.2917 16.2917V12.9375L22.125 16.7708V6.22917L18.2917 10.0625Z" fill="black"/>
</svg>
