<svg width="15" height="17" viewBox="0 0 15 17" fill="none" xmlns="http://www.w3.org/2000/svg">
<path d="M0.975609 8.66692L7.48116 2.16138C8.12821 1.51432 9.00581 1.15081 9.92088 1.15081C10.836 1.15081 11.7136 1.51432 12.3606 2.16138C13.0077 2.80843 13.3712 3.68603 13.3712 4.6011C13.3712 5.51617 13.0077 6.39377 12.3606 7.04082L4.63491 14.7654C4.30957 15.0796 3.87383 15.2535 3.42154 15.2495C2.96925 15.2456 2.5366 15.0642 2.21677 14.7444C1.89694 14.4245 1.71553 13.9919 1.7116 13.5396C1.70767 13.0873 1.88154 12.6516 2.19576 12.3262L9.10726 5.41472C9.21523 5.30691 9.27595 5.16062 9.27605 5.00803C9.27616 4.85545 9.21565 4.70907 9.10783 4.6011C9.00002 4.49313 8.85373 4.43241 8.70114 4.4323C8.54856 4.4322 8.40218 4.49271 8.29421 4.60052L1.38271 11.512C0.847366 12.0519 0.547684 12.7819 0.54924 13.5422C0.550797 14.3025 0.853465 15.0313 1.39101 15.569C1.92856 16.1067 2.65722 16.4095 3.41754 16.4113C4.17785 16.4131 4.90791 16.1136 5.44796 15.5784L13.1737 7.85387C14.0365 6.99118 14.5213 5.82107 14.5214 4.60093C14.5215 3.3808 14.0369 2.21059 13.1742 1.34775C12.3115 0.484908 11.1414 0.000107851 9.92129 1.79927e-08C8.70116 -0.000107815 7.53095 0.484485 6.66811 1.34717L0.161409 7.85387C0.0566684 7.96232 -0.00128835 8.10757 2.17365e-05 8.25833C0.00133183 8.40909 0.0618038 8.55331 0.168414 8.65992C0.275023 8.76653 0.419241 8.827 0.570004 8.82831C0.720767 8.82962 0.867163 8.77166 0.975609 8.66692Z" fill="black"/>
</svg>
