<svg width="105" height="28" viewBox="0 0 105 28" fill="none" xmlns="http://www.w3.org/2000/svg">
<path fill-rule="evenodd" clip-rule="evenodd" d="M0.146219 6.33102C0.892414 3.33158 3.25507 0.943696 5.40422 0.0973953C6.30312 -0.256642 8.20784 0.420698 8.22128 1.06631C8.26762 3.29993 8.2572 6.79111 8.25147 8.71074C8.25045 9.0532 8.24958 9.34565 8.2492 9.57201C8.24894 9.72447 8.24872 9.88767 8.2485 10.0597C8.2463 11.7276 8.243 14.229 8.18292 15.8618C8.12796 17.356 7.82238 18.732 6.94928 19.8776C6.22111 20.8329 4.96326 21.4257 4.66863 21.1765C4.48768 21.0235 4.59508 20.7029 4.7502 20.2398C4.82097 20.0285 4.90167 19.7876 4.96944 19.5195C5.18312 18.6748 5.30207 17.82 5.30207 15.1132C5.30207 13.9572 5.32302 10.2688 5.34071 7.15448C5.35363 4.87923 5.36481 2.91046 5.36481 2.4597C5.36481 2.43327 5.36484 2.40739 5.36486 2.38206C5.36544 1.83512 5.36574 1.55006 5.08432 1.77172C3.49932 3.02007 2.24005 5.86517 2.52849 8.41138C2.64931 9.47837 3.02237 10.0292 3.27904 10.4082C3.4966 10.7294 3.63054 10.9271 3.45638 11.2111C3.13383 11.7373 -0.798808 10.1304 0.146219 6.33102ZM103.959 15.5847C104.077 15.0943 104.219 14.8028 104.529 14.8028C104.93 14.8028 105.063 15.2626 104.973 15.8579C104.599 18.3317 103.487 19.2718 102.127 19.2718C101.49 19.2718 99.6629 18.9898 99.0312 16.4695C98.5652 14.6091 98.6799 11.2075 98.7311 10.1675C98.7325 10.1393 98.6909 9.99433 98.6013 10.1783L98.5818 10.2183C98.3243 10.7473 97.6753 12.0803 97.282 13.5517C96.6639 15.8641 96.6105 17.4734 96.641 17.7338C96.7036 18.268 96.0043 18.352 95.67 18.352C95.1444 18.352 94.4989 18.3123 93.9763 17.4728C93.7932 17.1792 93.5549 16.2516 93.3765 14.6823C93.143 12.6311 93.1066 11.0841 93.0926 10.4871L93.091 10.4196C93.0846 10.1523 92.9094 10.194 92.7542 10.4465L92.7307 10.4846C92.4447 10.9482 91.8747 11.8721 91.2649 14.155C90.9765 15.2352 90.9341 16.6036 90.9005 17.6867V17.6868V17.6869V17.6871L90.9004 17.6883C90.8905 18.007 90.8814 18.301 90.8669 18.5557C90.8428 18.9822 90.6662 19.1474 90.4397 19.1891C90.1127 19.2492 89.229 19.3873 88.3625 19.0952C88.1667 19.0292 87.8975 18.8925 87.8513 18.7835C87.7756 18.6055 87.7276 18.0407 87.6971 17.3499C86.9678 18.9188 86.0689 19.2718 85.1216 19.2718C84.2123 19.2718 82.6248 18.6985 82.2978 16.8425C82.2978 16.8425 82.1027 17.2124 81.7588 17.6402C80.2352 19.5365 77.2337 20.0208 75.6811 17.7843C75.6055 17.6753 75.5362 17.5574 75.4699 17.4354C74.92 18.5291 73.8938 19.2655 72.8211 19.2655C71.9048 19.2655 70.3591 18.7009 69.6735 16.9457C68.6861 14.4185 69.7385 10.6427 69.8317 10.3084L69.8351 10.2961C69.8896 10.0998 69.805 10.0451 69.5105 10.0626C68.5897 10.1174 67.7269 10.1107 67.7269 10.1107C67.2184 11.5687 66.2254 13.4422 65.2988 14.8373C64.4485 16.1173 63.5251 17.2111 62.7055 18.0764C62.7159 18.7276 62.7279 19.3535 62.7389 19.9255C62.7469 20.3436 62.7544 20.7328 62.7603 21.082C62.7952 23.1472 62.3193 25.2382 61.5922 26.2097C60.7661 27.3135 59.42 28.1022 57.851 27.9889C56.3708 27.8822 54.4173 27.0678 54.5833 24.8767C54.7136 23.1606 56.4826 21.6867 58.8127 19.7452L58.8127 19.7451L58.8224 19.7371C59.3522 19.2955 60.2153 18.5757 60.2153 18.5757L60.1709 17.3978C60.1168 17.4704 60.0549 17.5511 59.9835 17.6402C58.4705 19.5394 55.4585 20.0208 53.9058 17.7843C53.8029 17.6361 53.7086 17.4797 53.6222 17.3159C52.8851 18.8246 51.8334 19.2623 50.8148 19.2623C49.9053 19.2623 48.3168 18.6358 48.0962 16.8425C48.0962 16.8425 48.025 17.0534 47.5572 17.6402C46.0442 19.5394 43.0321 20.0208 41.4794 17.7843C41.1553 17.3173 40.9043 16.7653 40.7347 16.1304C40.1441 17.6878 38.7934 19.2708 37.4463 19.2708C35.4313 19.2708 34.2715 17.6558 33.999 14.8012C32.4767 18.1064 30.2899 19.3876 27.56 19.3046C26.8594 19.2833 25.7607 19.0959 25.2496 18.889C24.656 18.6486 24.0833 18.3738 24.2405 17.854C24.4021 17.3197 24.6852 16.8882 25.1801 16.549C25.3707 16.4184 25.6885 16.4557 25.8966 16.5802C26.0646 16.6808 26.1907 16.7676 26.3111 16.8505L26.3111 16.8505C26.4682 16.9588 26.6156 17.0603 26.8338 17.1768C28.1557 17.8819 28.8985 17.1565 29.0957 16.4525C29.3536 15.5318 28.9649 14.5612 27.7812 13.5398C27.4619 13.2643 27.1424 12.9999 26.8366 12.7467L26.8365 12.7466L26.8364 12.7465L26.8358 12.746L26.8357 12.7459C26.654 12.5955 26.477 12.449 26.3078 12.3066C25.656 13.3054 24.7488 14.6911 23.8145 16.1045C22.3158 18.3724 20.9177 19.2683 19.9259 19.2683C18.6295 19.2683 17.7223 18.428 17.9113 13.8944C17.9485 12.9999 17.9953 12.0216 18.0355 11.18L18.0355 11.1798L18.0355 11.1797C18.0715 10.4277 18.1022 9.78486 18.1163 9.40833C18.123 9.2279 17.9837 9.23447 17.8617 9.34471C17.1641 9.97542 15.6807 11.7514 14.5428 15.3912C13.9207 17.3811 13.8256 18.1314 13.7577 18.6681C13.7458 18.762 13.7347 18.8493 13.7218 18.9356C13.6495 19.4192 12.2574 19.2567 12.0033 19.2091C11.7302 19.1579 11.5646 19.0337 11.4213 18.8709C11.278 18.7077 11.1622 18.4336 11.0906 18.0966C11.0189 17.7601 11 16.9906 11 16.3307L11.0612 7.64856C11.0612 7.36654 11.2283 7.22504 11.5628 7.22504C12.265 7.22504 13.0548 7.52357 13.3506 7.66955C13.5251 7.7556 13.6014 7.88139 13.6014 8.01151L13.5639 13.561C13.5639 13.561 13.9983 12.5011 14.2195 11.9195C15.9744 7.30468 17.8316 7.22504 18.4753 7.22504C18.9054 7.22504 19.6479 7.60786 19.9959 7.80255C20.5685 8.12303 20.9101 8.47685 20.8842 9.09794C20.8653 9.55176 20.8452 10.0018 20.8257 10.4405C20.7643 11.8172 20.708 13.0814 20.708 13.9963L20.708 14.0511V14.0511C20.7079 15.4346 20.7078 16.8908 21.2408 16.8908C21.8785 16.8908 22.7107 15.5791 23.7972 13.8667L23.7972 13.8667L23.9938 13.5571C24.4201 12.8867 24.9235 12.0222 25.29 11.3801C25.2404 11.3282 25.1925 11.2766 25.1482 11.2261C24.5423 10.5351 24.3773 9.87014 24.6866 8.97359C25.0859 7.81649 26.4244 6.73262 28.0477 7.07201C29.0302 7.27728 29.0129 8.20796 28.6126 9.02151C28.0477 10.17 27.4107 10.7406 27.4107 10.7406C28.5105 11.4804 29.4935 12.1555 29.9915 12.512C31.343 13.4797 32.0933 14.6229 31.726 16.1452C31.726 16.1452 33.4364 14.9022 33.922 12.6013C33.9211 12.472 33.9204 12.3388 33.9204 12.2005C33.9204 10.9002 33.9597 6.68872 33.9597 6.68872C33.6093 6.67917 33.1882 6.66973 32.7599 6.66012L32.7598 6.66012C32.1097 6.64554 31.4432 6.6306 30.9827 6.61437C30.319 6.59129 30.8372 4.71407 31.3173 4.71407C31.5757 4.71407 32.1461 4.73703 32.7165 4.75998L32.7165 4.75998L32.7166 4.75998C33.2869 4.78294 33.8571 4.80589 34.1154 4.80589C34.1154 4.80589 34.164 2.40468 34.258 1.58488C34.3204 1.04471 34.6397 0.915558 35.3437 1.0476C35.8533 1.1431 36.2832 1.23155 36.7637 1.41631L36.7798 1.4225C36.9794 1.49871 37.3052 1.6231 37.2831 1.85874C37.2563 2.14925 37.1412 4.89931 37.1412 4.89931C37.1412 4.89931 38.4244 4.98568 38.8853 4.99513C39.4334 5.00571 40.8162 5.07269 41.0118 5.14912C41.4435 5.31802 41.0406 6.68263 40.6223 6.70202C40.0173 6.73015 39.5528 6.73079 39.1043 6.73141C38.9346 6.73164 38.7672 6.73187 38.5953 6.73358C38.3523 6.73615 37.0971 6.75554 37.0971 6.75554C37.0636 7.15486 36.8655 11.2979 36.8655 14.2079C36.8655 16.3924 37.4192 17.4175 38.0005 17.4175C38.9938 17.4175 40.2083 15.6556 40.4832 14.1268C40.4785 13.5885 40.5151 13.0125 40.5982 12.3975C40.8855 10.2691 41.4437 9.3077 42.1332 8.44047C43.1906 7.11047 44.5744 6.7863 45.9079 7.14621C46.403 7.27953 47.1472 7.73958 47.6099 8.40057V7.92385C47.6099 7.71698 47.8494 7.43961 48.1901 7.41669C48.4483 7.39923 48.7846 7.42935 49.1742 7.51123C49.5464 7.58975 50.3465 7.80175 50.353 8.22238C50.3538 8.28041 50.3481 8.42233 50.3399 8.62647V8.62657C50.3288 8.90439 50.313 9.29742 50.3027 9.75108C50.2924 10.2119 50.2784 10.6108 50.2645 11.0096V11.0096V11.0096V11.0097V11.0099V11.0099C50.2371 11.7934 50.2097 12.5765 50.2097 13.8284C50.2097 17.0672 50.7111 17.7758 51.5924 17.7758C52.2818 17.7758 52.8914 16.7794 53.1035 15.8266C52.907 14.8749 52.8803 13.7456 53.0245 12.4164C53.1793 10.9902 53.7255 9.50143 54.5596 8.44047C55.6092 7.10534 57.0007 6.7863 58.3343 7.14621C58.8294 7.27953 59.5736 7.73958 60.0362 8.40057C60.0362 8.40057 60.0362 8.02865 60.0345 7.96808C60.0257 7.64728 60.3646 7.37615 60.9272 7.41589C61.373 7.4473 61.8027 7.53735 62.1661 7.66747C62.5772 7.81457 62.7748 7.9309 62.7797 8.23841C62.7805 8.29588 62.7749 8.43256 62.7668 8.62987C62.7555 8.90351 62.7395 9.29376 62.7291 9.75108C62.7108 10.5549 62.6694 12.7843 62.6792 15.6172C62.6799 15.8162 62.6812 16.0163 62.6828 16.2163C63.1162 15.6792 63.4519 15.174 63.8908 14.4921C64.7103 13.2195 65.5039 11.4594 65.8277 10.1118C65.8277 10.1118 64.8409 9.59292 65.0007 8.49287C65.1015 7.79967 65.3672 7.41413 65.7574 7.08724C66.4111 6.53969 68.4601 6.4006 68.2398 8.11486C68.1979 8.44175 68.1468 8.62715 68.1468 8.62715C68.9939 8.51306 69.9197 8.36452 70.5673 8.22639C71.4764 8.03266 72.1089 8.19018 72.4057 8.49848C72.7293 8.83466 72.8583 9.18543 72.6995 9.8554C72.6328 10.137 72.5671 10.403 72.5039 10.6589C72.2143 11.8312 71.9772 12.7908 71.9354 14.0614C71.8582 16.415 72.5231 17.7758 73.4401 17.7758C74.0719 17.7758 74.6487 17.2754 74.9595 16.054C74.7023 14.9716 74.6551 13.6917 74.7998 12.4295C74.9977 10.7031 75.5006 9.50143 76.3348 8.44047C77.3844 7.10534 78.776 6.78614 80.1096 7.14621C80.6047 7.27953 81.3488 7.73958 81.8115 8.40057C81.8115 8.40057 81.8096 8.10028 81.8096 7.94212C81.8096 7.64744 82.0637 7.43336 82.423 7.41477C82.6768 7.40163 83.0018 7.4324 83.3758 7.51123C83.7481 7.58959 84.5481 7.80159 84.5546 8.22222C84.5555 8.28033 84.5498 8.42228 84.5416 8.62645C84.5304 8.90425 84.5146 9.29724 84.5044 9.75092C84.4941 10.2113 84.4801 10.6098 84.4662 11.0082L84.4662 11.0085L84.4662 11.0091L84.4661 11.01L84.4661 11.0107C84.4387 11.7939 84.4113 12.577 84.4113 13.8284C84.4113 17.0672 84.8271 17.7758 85.7084 17.7758C86.5886 17.7758 87.398 16.0808 87.6476 14.8322C87.6471 14.6953 87.6469 14.5666 87.6469 14.4485C87.6469 12.0389 87.7029 8.71008 87.7156 7.95774V7.95713L87.7181 7.80287C87.7181 7.46877 87.8286 7.23963 88.2798 7.23963C88.6456 7.23963 89.5071 7.4324 89.9444 7.54761C90.0415 7.57341 90.3637 7.7157 90.3616 8.14274C90.3569 9.27469 90.3516 12.2589 90.3516 12.2589C90.3516 12.2589 90.6302 11.5107 91.0303 10.4047C91.5226 9.04394 91.9964 7.89597 92.4055 7.46941C92.8777 6.94783 94.1891 7.38625 94.6209 7.63414C95.2865 8.01615 95.4142 8.48278 95.4183 9.03096C95.4376 11.5919 95.5807 12.9297 95.6636 13.7036L95.6636 13.7039L95.6636 13.704L95.6761 13.8204L95.6859 13.9137C95.6971 14.0249 95.7613 14.0151 95.7675 13.9675C95.887 13.0488 96.3949 10.787 97.6933 7.93812C98.1512 6.93312 99.0694 7.23627 99.7041 7.44581L99.7105 7.44794C101.186 7.93523 101.338 8.43006 101.308 8.93017C101.165 11.3642 101.147 13.8111 101.259 15.1403C101.402 16.8307 101.956 17.675 102.572 17.675C103.124 17.675 103.552 17.2901 103.959 15.5847ZM80.9086 16.0484C81.3199 15.2725 81.6513 14.1725 81.7206 12.7653C81.8611 9.90778 81.2639 8.36237 79.988 8.24973C78.6944 8.13576 77.9133 9.3994 77.6335 11.0726C77.3586 12.715 77.3765 14.6807 77.7588 15.8576C78.4603 18.0167 80.1124 17.5504 80.9086 16.0484ZM60.211 21.4962C60.1937 23.8344 59.8022 25.8845 58.9627 26.4799C57.772 27.3242 56.1716 26.6909 56.503 24.9847C56.7962 23.4748 58.1829 21.9329 60.2144 20.0489C60.2144 20.0489 60.2186 20.4786 60.211 21.4962ZM59.0739 16.0484C59.4595 15.3208 59.813 14.0333 59.8858 12.7515C60.0664 9.57135 59.4346 8.2499 58.1532 8.2499C56.8353 8.2499 56.1015 9.70011 55.7987 11.2633C55.5654 12.4681 55.4525 14.3802 55.924 15.8576C56.6137 18.0199 58.2778 17.5504 59.0739 16.0484ZM47.4255 12.7321C47.3474 14.0894 47.0657 15.2242 46.6135 16.0484C45.7956 17.5401 44.1774 18.0131 43.4637 15.8576C42.9492 14.3033 43.1244 12.184 43.3384 11.0392C43.656 9.34025 44.4513 8.13576 45.6929 8.2499C46.9683 8.36702 47.5883 9.90778 47.4255 12.7321Z" fill="#262626"/>
</svg>
