<svg width="23" height="24" viewBox="0 0 23 24" fill="none" xmlns="http://www.w3.org/2000/svg">
<path d="M21.9329 9.56932L12.2362 0.648368C11.921 0.358355 11.5059 0.201404 11.0776 0.210321C10.6494 0.219239 10.2412 0.393335 9.93828 0.69622L1.02017 9.61438L0.5625 10.072V23.2192H9.15625V15.0161H13.8438V23.2192H22.4375V10.0336L21.9329 9.56932ZM11.1112 1.77249C11.125 1.77249 11.1165 1.77547 11.1106 1.78128C11.1045 1.77547 11.0975 1.77249 11.1112 1.77249ZM20.875 21.6567H15.4062V15.0161C15.4062 14.6017 15.2416 14.2043 14.9486 13.9112C14.6556 13.6182 14.2582 13.4536 13.8438 13.4536H9.15625C8.74185 13.4536 8.34442 13.6182 8.0514 13.9112C7.75837 14.2043 7.59375 14.6017 7.59375 15.0161V21.6567H2.125V10.7192L11.1112 1.80105C11.1119 1.80047 11.1119 1.79993 11.1124 1.79934L20.875 10.7192V21.6567Z" fill="black"/>
</svg>
