<svg width="21" height="27" viewBox="0 0 21 27" fill="none" xmlns="http://www.w3.org/2000/svg">
<path d="M0.603516 3.31165C0.603516 2.43334 0.955619 1.59101 1.58237 0.969959C2.20912 0.348905 3.05917 0 3.94553 0L17.3136 0C18.1999 0 19.05 0.348905 19.6767 0.969959C20.3035 1.59101 20.6556 2.43334 20.6556 3.31165V25.6653C20.6555 25.815 20.6145 25.9619 20.5368 26.0904C20.4591 26.2189 20.3477 26.324 20.2145 26.3947C20.0812 26.4654 19.9311 26.499 19.7802 26.4918C19.6292 26.4846 19.483 26.437 19.3572 26.3541L10.6296 21.6929L1.90189 26.3541C1.77607 26.437 1.6299 26.4846 1.47894 26.4918C1.32798 26.499 1.1779 26.4654 1.04466 26.3947C0.911425 26.324 0.800033 26.2189 0.722348 26.0904C0.644663 25.9619 0.603594 25.815 0.603516 25.6653V3.31165ZM3.94553 1.65582C3.50235 1.65582 3.07732 1.83028 2.76395 2.1408C2.45057 2.45133 2.27452 2.87249 2.27452 3.31165V24.1187L10.1667 20.009C10.3038 19.9185 10.4648 19.8703 10.6296 19.8703C10.7943 19.8703 10.9553 19.9185 11.0924 20.009L18.9846 24.1187V3.31165C18.9846 2.87249 18.8085 2.45133 18.4952 2.1408C18.1818 1.83028 17.7568 1.65582 17.3136 1.65582H3.94553Z" fill="black"/>
</svg>
