<svg width="23" height="23" viewBox="0 0 23 23" fill="none" xmlns="http://www.w3.org/2000/svg">
<path d="M11.8109 0.208008C5.66832 0.208008 0.670898 4.16984 0.670898 9.03907C0.670898 12.2492 2.78528 15.1281 6.24092 16.6934V22.2857L12.1897 17.8646C18.1574 17.7067 22.951 13.8078 22.951 9.03907C22.951 4.16984 17.9536 0.208008 11.8109 0.208008ZM11.8109 15.6624H11.44L8.46893 17.8701V15.202L7.75485 14.9294C4.7593 13.7869 2.89891 11.5294 2.89891 9.03907C2.89891 5.38632 6.89707 2.41577 11.8109 2.41577C16.7248 2.41577 20.723 5.38632 20.723 9.03907C20.723 12.6918 16.7248 15.6624 11.8109 15.6624Z" fill="black"/>
</svg>
